# xmcd CD database file
#
# Track frame offsets:
#	150
#	15729
#	26735
#
# Disc length: 535 seconds
#
# Revision: 0
# Processed by: cddbd v1.5.1PL2 Copyright (c) Steve Scherf et al.
# Submitted via: CDex 1.51
#
DISCID=1b021503
DTITLE=Grain - black an white stripe
DYEAR=2005
DGENRE=Country
TTITLE0=Feline-Bottleneck-Mouse-Shoe-Trap
TTITLE1=Gone Fishin'
TTITLE2=Easy
EXTD=YEAR: 2005
EXTT0=
EXTT1=
EXTT2=
PLAYORDER=
